<?xml version="1.0" encoding="UTF-8"?>
<svg width="824px" height="824px" viewBox="0 0 824 824" version="1.1" xmlns="http://www.w3.org/2000/svg" xmlns:xlink="http://www.w3.org/1999/xlink">
    <title>Logo</title>
    <g id="Logo" stroke="none" stroke-width="1" fill="none" fill-rule="evenodd">
        <rect id="White-background" fill="#FFFFFF" x="412" y="0" width="412" height="824"></rect>
        <rect id="Black-background" fill="#000000" x="0" y="0" width="412" height="824"></rect>
        <g id="Black-logo" transform="translate(82.000000, 63.000000)">
            <circle id="Oval" fill="#000000" fill-rule="nonzero" cx="330" cy="349" r="61.5"></circle>
            <ellipse id="Oval" stroke="#000000" stroke-width="30" cx="330" cy="349" rx="330" ry="126"></ellipse>
            <ellipse id="Oval" stroke="#000000" stroke-width="30" transform="translate(330.000000, 349.000000) rotate(60.000000) translate(-330.000000, -349.000000) " cx="330" cy="349" rx="330" ry="126"></ellipse>
            <ellipse id="Oval" stroke="#000000" stroke-width="30" transform="translate(330.000000, 349.000000) rotate(120.000000) translate(-330.000000, -349.000000) " cx="330" cy="349" rx="330" ry="126"></ellipse>
        </g>
        <g id="White-logo" transform="translate(82.000000, 104.000000)">
            <path d="M330,246.5 L330,369.5 C296.034488,369.5 268.5,341.965512 268.5,308 C268.5,274.034488 296.034488,246.5 330,246.5 L330,246.5 Z" id="Combined-Shape" fill="#FFFFFF" fill-rule="nonzero"></path>
            <path d="M330,434 C147.746033,434 0,377.587878 0,308 C0,238.412122 147.746033,182 330,182 L330,182" id="Path" stroke="#FFFFFF" stroke-width="30"></path>
            <path d="M330.000084,76.5641816 L329.999919,97.7822773 L329.998919,97.7832773 L329.999919,97.7842773 L330.000057,119.618827 C296.10245,156.485901 263.028231,201.998506 233.87118,252.5 C223.204511,270.975213 213.391615,289.552204 204.50628,308.000031 C213.391447,326.447478 223.20442,345.024629 233.87118,363.5 C263.028329,414.001663 296.102702,459.514455 330.000394,496.381658 L329.999919,518.214277 L329.998919,518.215277 L329.999919,518.216277 L330.000089,539.435813 C263.608903,604.045375 200.332765,631.508273 157.5,606.778764 C121.232755,585.839861 110.066588,533.635148 121.35734,463.162228 C128.868471,416.280376 146.131583,362.772634 171.346114,307.999821 C146.131571,253.227327 128.868468,199.719607 121.35734,152.837772 C110.066588,82.3648517 121.232755,30.1601392 157.5,9.22123569 C200.332764,-15.508272 263.608898,11.9546229 330.000084,76.5641816 Z M188.587262,343.244362 L187.879641,344.928607 C169.582714,388.63856 156.940292,430.703381 150.979569,467.908125 C141.446223,527.411934 150.098726,567.864621 172.5,580.798002 C199.857294,596.592743 251.522577,573.883367 309.069009,517.938861 C273.226181,479.170308 238.444144,431.420605 207.890418,378.5 C201.122442,366.777521 194.682206,355.008222 188.587262,343.244362 Z M172.5,35.2019978 C150.098726,48.1353791 141.446223,88.5880657 150.979569,148.091875 C157.01679,185.774097 169.908315,228.441944 188.58689,272.755093 C194.682206,260.991778 201.122442,249.222479 207.890418,237.5 C238.4444,184.578951 273.226736,136.82894 309.069467,98.0628744 C251.522712,42.1166908 199.857329,19.4072367 172.5,35.2019978 Z" id="Combined-Shape" fill="#FFFFFF" fill-rule="nonzero"></path>
        </g>
    </g>
</svg>